<svg width="24" height="24" fill="none" xmlns="http://www.w3.org/2000/svg"><path d="M19.5 3.75h-15A2.25 2.25 0 0 0 2.25 6v13.5a2.25 2.25 0 0 0 2.25 2.25h15a2.25 2.25 0 0 0 2.25-2.25V6a2.25 2.25 0 0 0-2.25-2.25Z" stroke="currentColor" stroke-linejoin="round"/><path d="M19.5 3.75h-15A2.25 2.25 0 0 0 2.25 6v13.5a2.25 2.25 0 0 0 2.25 2.25h15a2.25 2.25 0 0 0 2.25-2.25V6a2.25 2.25 0 0 0-2.25-2.25Z" stroke="currentColor" stroke-linejoin="round"/><path d="M6 2.25v1.5m12-1.5v1.5m3.75 3.75H2.25m4.44 4.688 2.035-1.5h.215v7.874m3.613.062a1.29 1.29 0 0 0-.073-.001h.07m.003.001c.127.007.054.032 0 0Zm0 0a.105.105 0 0 0-.003-.001m0 0c-.057-.036-.09-.135.153-.383.168-.167 3.575-4.898 3.665-5.118.09-.22.134-.455.132-.692 0-1.224-1.06-1.87-2.245-1.87-1.003 0-1.572.544-1.775.887m.07 7.176h4.833" stroke="currentColor" stroke-linecap="round" stroke-linejoin="round"/></svg>