<svg width="24" height="24" fill="none" xmlns="http://www.w3.org/2000/svg"><path fill-rule="evenodd" clip-rule="evenodd" d="M2.298 7.75c.368-2.821 2.78-5 5.702-5h8a5.751 5.751 0 0 1 5.701 5H2.299Zm-.048 1.5v7.25A5.75 5.75 0 0 0 8 22.25h8a5.75 5.75 0 0 0 5.75-5.75V9.25H2.25Zm4.25 4a.75.75 0 0 1 0-1.5h1a.75.75 0 0 1 0 1.5h-1Zm4.25-.75c0 .414.336.75.75.75h1a.75.75 0 0 0 0-1.5h-1a.75.75 0 0 0-.75.75Zm5.75.75a.75.75 0 0 1 0-1.5h1a.75.75 0 0 1 0 1.5h-1ZM5.75 16.5c0 .414.336.75.75.75h1a.75.75 0 0 0 0-1.5h-1a.75.75 0 0 0-.75.75Zm5.75.75a.75.75 0 0 1 0-1.5h1a.75.75 0 0 1 0 1.5h-1Zm4.25-.75c0 .414.336.75.75.75h1a.75.75 0 0 0 0-1.5h-1a.75.75 0 0 0-.75.75Zm.75-15.25a.75.75 0 0 0-.75.75v3a.75.75 0 0 0 1.5 0V2a.75.75 0 0 0-.75-.75Zm-9 0a.75.75 0 0 0-.75.75v3a.75.75 0 0 0 1.5 0V2a.75.75 0 0 0-.75-.75Z" fill="currentColor"/></svg>