<svg width="23" height="29" fill="none" xmlns="http://www.w3.org/2000/svg"><path d="M16.07 5.21 11.5 1.783m0 0L6.927 5.211M11.5 1.782v11.429" stroke="#EB5757" stroke-width="2"/><path fill-rule="evenodd" clip-rule="evenodd" d="M5.214 8.354h-.066c-.886 0-1.65 0-2.262.082-.655.088-1.284.287-1.793.796-.51.51-.709 1.138-.797 1.794-.082.611-.082 1.375-.082 2.262v10.417c0 .887 0 1.65.082 2.262.088.655.287 1.284.797 1.794s1.138.708 1.793.796c.612.082 1.376.082 2.262.082h12.703c.887 0 1.65 0 2.262-.082.656-.088 1.284-.287 1.794-.796.51-.51.708-1.139.796-1.794.082-.612.082-1.375.082-2.262V13.288c0-.887 0-1.65-.082-2.262-.088-.656-.287-1.284-.796-1.794-.51-.51-1.138-.708-1.794-.796-.612-.083-1.375-.083-2.262-.082h-1.78v2h1.714c.971 0 1.6.002 2.062.064.433.058.57.152.645.228.076.076.17.212.229.646.062.463.064 1.09.064 2.062v2.857c0 .688 0 1.132-.033 1.468-.031.32-.084.434-.12.492a1 1 0 0 1-.315.315c-.058.036-.172.088-.492.12-.336.032-.78.033-1.468.033h-.887c-.31 0-.622 0-.886.03a1.979 1.979 0 0 0-.962.348c-.32.23-.505.526-.633.802-.113.241-.21.536-.31.831l-.013.04-.23.694a7.25 7.25 0 0 1-.239.66l-.002.006h-.006a7.243 7.243 0 0 1-.702.018H9.513c-.371 0-.566-.002-.702-.017l-.006-.001-.003-.005a7.233 7.233 0 0 1-.238-.661l-.231-.694-.014-.04a7.963 7.963 0 0 0-.309-.831 1.979 1.979 0 0 0-.633-.802 1.984 1.984 0 0 0-.962-.348c-.264-.03-.575-.03-.886-.03h-.887c-.688 0-1.132 0-1.468-.033-.32-.032-.434-.084-.492-.12a1 1 0 0 1-.315-.315c-.036-.058-.088-.172-.12-.492-.032-.336-.033-.78-.033-1.468v-2.857c0-.972.002-1.6.064-2.062.058-.434.153-.57.229-.646.076-.076.212-.17.646-.228.462-.062 1.09-.064 2.06-.064h1.715v-2H5.214Zm-3 12.097v3.188c0 .971.002 1.599.064 2.062.058.433.153.57.229.645.076.076.212.17.646.229.462.062 1.09.064 2.06.064h12.572c.971 0 1.6-.002 2.062-.064.433-.058.57-.152.645-.229.076-.076.17-.212.229-.645.062-.463.064-1.09.064-2.062v-3.188c-.25.078-.508.12-.767.145-.444.043-.986.043-1.615.043h-.891c-.37 0-.565.002-.701.017l-.006.001-.003.006a7.223 7.223 0 0 0-.238.66l-.231.694-.014.04c-.098.295-.196.59-.309.831a1.977 1.977 0 0 1-.633.802c-.32.231-.66.313-.962.348a8.25 8.25 0 0 1-.886.03H9.47c-.31 0-.622 0-.886-.03a1.979 1.979 0 0 1-.962-.348 1.978 1.978 0 0 1-.633-.802c-.113-.241-.21-.536-.31-.831l-.013-.04-.23-.694a7.218 7.218 0 0 0-.239-.66l-.002-.006h-.006a7.198 7.198 0 0 0-.702-.018h-.891c-.629 0-1.17 0-1.615-.043a3.808 3.808 0 0 1-.767-.145Z" fill="#1760A5"/></svg>