<svg width="24" height="24" fill="none" xmlns="http://www.w3.org/2000/svg"><path fill-rule="evenodd" clip-rule="evenodd" d="M6.695 17.244a10.808 10.808 0 0 1-4.402-4.35 2.384 2.384 0 0 1 0-2.288A10.769 10.769 0 0 1 11.75 5c2.057 0 3.98.576 5.614 1.575l-2.752 2.752a3.75 3.75 0 1 0-5.285 5.285l-2.632 2.632Zm1.474.647a10.75 10.75 0 0 0 3.581.609c4.081 0 7.631-2.267 9.457-5.606.39-.713.39-1.575 0-2.288a10.802 10.802 0 0 0-2.604-3.148l-3.25 3.25a3.75 3.75 0 0 1-4.646 4.646L8.17 17.89Zm3.581-6.141-1.585 1.596a2.25 2.25 0 0 1 2.949-3.387L11.75 11.75Z" fill="currentColor"/><path d="M19 4 4 19" stroke="currentColor" stroke-width="1.5" stroke-linecap="round" stroke-linejoin="round"/></svg>