<svg width="23" height="26" fill="none" xmlns="http://www.w3.org/2000/svg"><path d="m6.928 8.785 4.571 3.428m0 0 4.572-3.428m-4.572 3.428V.785" stroke="#6FCF97" stroke-width="2"/><path fill-rule="evenodd" clip-rule="evenodd" d="M5.214 5.351h-.066c-.886 0-1.65 0-2.262.082-.655.088-1.284.287-1.793.797-.51.51-.709 1.138-.797 1.793C.214 8.635.214 9.4.214 10.285v10.418c0 .886 0 1.65.082 2.262.088.655.287 1.283.797 1.793s1.138.709 1.793.797c.612.082 1.376.082 2.262.082h12.703c.887 0 1.65 0 2.262-.082.656-.088 1.284-.287 1.794-.797s.708-1.138.796-1.793c.082-.612.082-1.376.082-2.262V10.285c0-.886 0-1.65-.082-2.262-.088-.655-.287-1.284-.796-1.793-.51-.51-1.138-.709-1.794-.797-.612-.082-1.375-.082-2.262-.082h-1.78v2h1.714c.971 0 1.6.002 2.062.064.433.059.57.153.645.229.076.076.17.212.229.646.062.462.064 1.09.064 2.061v2.857c0 .688 0 1.133-.033 1.468-.031.32-.084.435-.12.493a1 1 0 0 1-.315.314c-.058.037-.172.09-.492.12-.336.033-.78.034-1.468.034h-.887c-.31 0-.622 0-.886.03a1.979 1.979 0 0 0-.962.347c-.32.231-.505.527-.633.802-.113.242-.21.537-.31.832l-.013.04-.23.694a7.18 7.18 0 0 1-.239.66l-.002.005-.006.001a7.232 7.232 0 0 1-.702.017H9.513c-.371 0-.566-.001-.702-.017h-.006l-.003-.006a7.227 7.227 0 0 1-.238-.66l-.231-.694-.014-.04c-.098-.295-.196-.59-.309-.832a1.978 1.978 0 0 0-.633-.802c-.32-.23-.66-.313-.962-.347a8.249 8.249 0 0 0-.886-.03h-.887c-.688 0-1.132-.001-1.468-.034-.32-.03-.434-.083-.492-.12a1 1 0 0 1-.315-.314c-.036-.058-.088-.173-.12-.493-.032-.335-.033-.78-.033-1.468v-2.857c0-.971.002-1.599.064-2.061.058-.434.153-.57.229-.646.076-.076.212-.17.646-.229.462-.062 1.09-.064 2.06-.064h1.715v-2H5.214Zm-3 12.098v3.188c0 .97.002 1.599.064 2.061.058.434.153.57.229.646.076.076.212.17.646.229.462.062 1.09.064 2.06.064h12.572c.971 0 1.6-.002 2.062-.064.433-.059.57-.153.645-.23.076-.075.17-.211.229-.645.062-.462.064-1.09.064-2.061v-3.188c-.25.078-.508.12-.767.145-.444.043-.986.043-1.615.043h-.891c-.37 0-.565.001-.701.017h-.006l-.003.006a7.228 7.228 0 0 0-.238.66l-.231.694-.014.04c-.098.295-.196.59-.309.832a1.977 1.977 0 0 1-.633.802c-.32.23-.66.313-.962.347-.264.03-.575.03-.886.03H9.47c-.31 0-.622 0-.886-.03a1.978 1.978 0 0 1-.962-.347 1.978 1.978 0 0 1-.633-.802 8.226 8.226 0 0 1-.31-.832l-.013-.04-.23-.693a7.224 7.224 0 0 0-.239-.661l-.002-.005-.006-.001a7.243 7.243 0 0 0-.702-.017h-.891c-.629 0-1.17 0-1.615-.043a3.808 3.808 0 0 1-.767-.145Z" fill="#1760A5"/></svg>