<svg width="165" height="88" viewBox="0 0 165 88" fill="none" xmlns="http://www.w3.org/2000/svg">
<path d="M158 13C161.59 13 164.5 10.0899 164.5 6.5C164.5 2.91015 161.59 0 158 0V13ZM101.5 86.5C101.5 36.0377 133.618 13 158 13V0C125.382 0 88.5 29.9623 88.5 86.5H101.5Z" fill="#F5F5F5"/>
<path d="M158 12C161.038 12 163.5 9.53757 163.5 6.5C163.5 3.46243 161.038 1 158 1V12ZM100.5 86.5C100.5 35.5704 132.985 12 158 12V1C126.015 1 89.5 30.4296 89.5 86.5H100.5Z" fill="url(#paint0_linear_86_6851)"/>
<path d="M88 81.0639V87.5639H101V81.0639H88ZM31.3195 82.5851C35.2627 66.2049 41.2087 55.9969 47.2853 50.2531C53.2258 44.638 59.3696 43.1592 64.815 44.114C76.0325 46.0807 88 59.5694 88 81.0639H101C101 55.4941 86.4675 34.7119 67.06 31.3093C57.1929 29.5793 46.9929 32.6412 38.3553 40.8057C29.8538 48.8415 22.9873 61.652 18.6805 79.5426L31.3195 82.5851Z" fill="#F5F5F5"/>
<path d="M89 81.0639V86.5639H100V81.0639H89ZM30.3472 82.3511C34.3184 65.8547 40.3353 55.4465 46.5984 49.5264C52.7464 43.7152 59.2021 42.1146 64.9877 43.129C76.8352 45.2062 89 59.2559 89 81.0639H100C100 55.8076 85.6648 35.5864 66.8873 32.2942C57.3604 30.6239 47.4724 33.564 39.0422 41.5324C30.7272 49.3919 23.9316 62.0022 19.6528 79.7766L30.3472 82.3511Z" fill="url(#paint1_linear_86_6851)"/>
<path d="M18.5 80.5V87H31.5V80.5H18.5ZM8.79155 49.2518C5.34075 48.2623 1.74122 50.2576 0.751772 53.7085C-0.237673 57.1593 1.75765 60.7588 5.20845 61.7482L8.79155 49.2518ZM31.5 80.5C31.5 72.6589 27.9824 65.5388 23.7925 60.2841C19.6845 55.1318 14.1343 50.7837 8.79155 49.2518L5.20845 61.7482C7.09323 62.2886 10.543 64.5194 13.6281 68.3886C16.6314 72.1552 18.5 76.499 18.5 80.5H31.5Z" fill="#F5F5F5"/>
<path d="M19.5 80.5V86H30.5V80.5H19.5ZM8.51593 50.213C5.59602 49.3758 2.55026 51.0642 1.71304 53.9841C0.875815 56.904 2.56417 59.9497 5.48407 60.787L8.51593 50.213ZM30.5 80.5C30.5 72.9543 27.1092 66.0478 23.0107 60.9075C18.9813 55.854 13.5926 51.6687 8.51593 50.213L5.48407 60.787C7.63485 61.4037 11.2462 63.7973 14.41 67.7652C17.5045 71.6463 19.5 76.2036 19.5 80.5H30.5Z" fill="url(#paint2_linear_86_6851)"/>
<defs>
<linearGradient id="paint0_linear_86_6851" x1="126.5" y1="6.5" x2="126.5" y2="86.5" gradientUnits="userSpaceOnUse">
<stop stop-color="#1F82C0"/>
<stop offset="1" stop-color="#54CCE7"/>
</linearGradient>
<linearGradient id="paint1_linear_86_6851" x1="59.75" y1="37.3438" x2="59.75" y2="81.0639" gradientUnits="userSpaceOnUse">
<stop stop-color="#1F82C0"/>
<stop offset="1" stop-color="#54CCE7"/>
</linearGradient>
<linearGradient id="paint2_linear_86_6851" x1="16" y1="55.5" x2="16" y2="80.5" gradientUnits="userSpaceOnUse">
<stop stop-color="#1F82C0"/>
<stop offset="1" stop-color="#54CCE7"/>
</linearGradient>
</defs>
</svg>
